<mxfile host="65bd71144e">
    <diagram id="ohKBb8qNQtlWpczjgfJK" name="Page-1">
        <mxGraphModel dx="1722" dy="1960" grid="1" gridSize="10" guides="1" tooltips="1" connect="1" arrows="1" fold="1" page="1" pageScale="1" pageWidth="850" pageHeight="1100" math="0" shadow="0">
            <root>
                <mxCell id="0"/>
                <mxCell id="1" parent="0"/>
                <mxCell id="10" value="" style="endArrow=classic;html=1;" parent="1" source="19" target="8" edge="1">
                    <mxGeometry width="50" height="50" relative="1" as="geometry">
                        <mxPoint x="190" y="249" as="sourcePoint"/>
                        <mxPoint x="330" y="355" as="targetPoint"/>
                    </mxGeometry>
                </mxCell>
                <mxCell id="11" value="" style="endArrow=classic;html=1;" parent="1" source="19" target="2" edge="1">
                    <mxGeometry width="50" height="50" relative="1" as="geometry">
                        <mxPoint x="155" y="210" as="sourcePoint"/>
                        <mxPoint x="430" y="360" as="targetPoint"/>
                    </mxGeometry>
                </mxCell>
                <mxCell id="16" value="" style="endArrow=classic;html=1;" parent="1" source="8" target="18" edge="1">
                    <mxGeometry width="50" height="50" relative="1" as="geometry">
                        <mxPoint x="380" y="420" as="sourcePoint"/>
                        <mxPoint x="530" y="460" as="targetPoint"/>
                    </mxGeometry>
                </mxCell>
                <mxCell id="17" value="" style="endArrow=classic;html=1;" parent="1" source="18" target="23" edge="1">
                    <mxGeometry width="50" height="50" relative="1" as="geometry">
                        <mxPoint x="535" y="561.81" as="sourcePoint"/>
                        <mxPoint x="298.25" y="771.5" as="targetPoint"/>
                    </mxGeometry>
                </mxCell>
                <mxCell id="18" value="&lt;meta charset=&quot;utf-8&quot; style=&quot;font-size: 9px;&quot;&gt;&lt;div style=&quot;color: rgb(212, 212, 212); background-color: rgb(30, 30, 30); font-family: menlo, monaco, &amp;quot;courier new&amp;quot;, monospace; font-weight: normal; font-size: 9px; line-height: 18px;&quot;&gt;&lt;div style=&quot;font-size: 9px;&quot;&gt;&lt;span style=&quot;color: rgb(197, 134, 192); font-size: 9px;&quot;&gt;export&lt;/span&gt;&lt;span style=&quot;color: rgb(212, 212, 212); font-size: 9px;&quot;&gt; &lt;/span&gt;&lt;span style=&quot;color: rgb(86, 156, 214); font-size: 9px;&quot;&gt;type&lt;/span&gt;&lt;span style=&quot;color: rgb(212, 212, 212); font-size: 9px;&quot;&gt; &lt;/span&gt;&lt;span style=&quot;color: rgb(78, 201, 176); font-size: 9px;&quot;&gt;CoinGeckoMarketCapResult&lt;/span&gt;&lt;span style=&quot;color: rgb(212, 212, 212); font-size: 9px;&quot;&gt; = {&lt;/span&gt;&lt;/div&gt;&lt;div style=&quot;font-size: 9px;&quot;&gt;&lt;span style=&quot;color: rgb(212, 212, 212); font-size: 9px;&quot;&gt;  [&lt;/span&gt;&lt;span style=&quot;color: rgb(156, 220, 254); font-size: 9px;&quot;&gt;k&lt;/span&gt;&lt;span style=&quot;color: rgb(212, 212, 212); font-size: 9px;&quot;&gt;: &lt;/span&gt;&lt;span style=&quot;color: rgb(78, 201, 176); font-size: 9px;&quot;&gt;caip19&lt;/span&gt;&lt;span style=&quot;color: rgb(212, 212, 212); font-size: 9px;&quot;&gt;]: {&lt;/span&gt;&lt;/div&gt;&lt;div style=&quot;font-size: 9px;&quot;&gt;&lt;span style=&quot;color: rgb(212, 212, 212); font-size: 9px;&quot;&gt;    &lt;/span&gt;&lt;span style=&quot;color: rgb(156, 220, 254); font-size: 9px;&quot;&gt;id&lt;/span&gt;&lt;span style=&quot;color: rgb(212, 212, 212); font-size: 9px;&quot;&gt;: &lt;/span&gt;&lt;span style=&quot;color: rgb(78, 201, 176); font-size: 9px;&quot;&gt;string&lt;/span&gt;&lt;/div&gt;&lt;div style=&quot;font-size: 9px;&quot;&gt;&lt;span style=&quot;color: rgb(212, 212, 212); font-size: 9px;&quot;&gt;    &lt;/span&gt;&lt;span style=&quot;color: rgb(156, 220, 254); font-size: 9px;&quot;&gt;symbol&lt;/span&gt;&lt;span style=&quot;color: rgb(212, 212, 212); font-size: 9px;&quot;&gt;: &lt;/span&gt;&lt;span style=&quot;color: rgb(78, 201, 176); font-size: 9px;&quot;&gt;string&lt;/span&gt;&lt;/div&gt;&lt;div style=&quot;font-size: 9px;&quot;&gt;&lt;span style=&quot;color: rgb(212, 212, 212); font-size: 9px;&quot;&gt;    &lt;/span&gt;&lt;span style=&quot;color: rgb(156, 220, 254); font-size: 9px;&quot;&gt;name&lt;/span&gt;&lt;span style=&quot;color: rgb(212, 212, 212); font-size: 9px;&quot;&gt;: &lt;/span&gt;&lt;span style=&quot;color: rgb(78, 201, 176); font-size: 9px;&quot;&gt;string&lt;/span&gt;&lt;/div&gt;&lt;div style=&quot;font-size: 9px;&quot;&gt;&lt;span style=&quot;color: rgb(212, 212, 212); font-size: 9px;&quot;&gt;    &lt;/span&gt;&lt;span style=&quot;color: rgb(156, 220, 254); font-size: 9px;&quot;&gt;image&lt;/span&gt;&lt;span style=&quot;color: rgb(212, 212, 212); font-size: 9px;&quot;&gt;: &lt;/span&gt;&lt;span style=&quot;color: rgb(78, 201, 176); font-size: 9px;&quot;&gt;string&lt;/span&gt;&lt;/div&gt;&lt;div style=&quot;font-size: 9px;&quot;&gt;&lt;span style=&quot;color: rgb(212, 212, 212); font-size: 9px;&quot;&gt;    &lt;/span&gt;&lt;span style=&quot;color: rgb(156, 220, 254); font-size: 9px;&quot;&gt;current_price&lt;/span&gt;&lt;span style=&quot;color: rgb(212, 212, 212); font-size: 9px;&quot;&gt;: &lt;/span&gt;&lt;span style=&quot;color: rgb(78, 201, 176); font-size: 9px;&quot;&gt;number&lt;/span&gt;&lt;/div&gt;&lt;div style=&quot;font-size: 9px;&quot;&gt;&lt;span style=&quot;color: rgb(212, 212, 212); font-size: 9px;&quot;&gt;    &lt;/span&gt;&lt;span style=&quot;color: rgb(156, 220, 254); font-size: 9px;&quot;&gt;market_cap&lt;/span&gt;&lt;span style=&quot;color: rgb(212, 212, 212); font-size: 9px;&quot;&gt;: &lt;/span&gt;&lt;span style=&quot;color: rgb(78, 201, 176); font-size: 9px;&quot;&gt;number&lt;/span&gt;&lt;/div&gt;&lt;div style=&quot;font-size: 9px;&quot;&gt;&lt;span style=&quot;color: rgb(212, 212, 212); font-size: 9px;&quot;&gt;    &lt;/span&gt;&lt;span style=&quot;color: rgb(156, 220, 254); font-size: 9px;&quot;&gt;market_cap_rank&lt;/span&gt;&lt;span style=&quot;color: rgb(212, 212, 212); font-size: 9px;&quot;&gt;: &lt;/span&gt;&lt;span style=&quot;color: rgb(78, 201, 176); font-size: 9px;&quot;&gt;number&lt;/span&gt;&lt;/div&gt;&lt;div style=&quot;font-size: 9px;&quot;&gt;&lt;span style=&quot;color: rgb(212, 212, 212); font-size: 9px;&quot;&gt;    &lt;/span&gt;&lt;span style=&quot;color: rgb(156, 220, 254); font-size: 9px;&quot;&gt;fully_diluted_valuation&lt;/span&gt;&lt;span style=&quot;color: rgb(212, 212, 212); font-size: 9px;&quot;&gt;: &lt;/span&gt;&lt;span style=&quot;color: rgb(78, 201, 176); font-size: 9px;&quot;&gt;number&lt;/span&gt;&lt;span style=&quot;color: rgb(212, 212, 212); font-size: 9px;&quot;&gt; | &lt;/span&gt;&lt;span style=&quot;color: rgb(78, 201, 176); font-size: 9px;&quot;&gt;null&lt;/span&gt;&lt;/div&gt;&lt;div style=&quot;font-size: 9px;&quot;&gt;&lt;span style=&quot;color: rgb(212, 212, 212); font-size: 9px;&quot;&gt;    &lt;/span&gt;&lt;span style=&quot;color: rgb(156, 220, 254); font-size: 9px;&quot;&gt;total_volume&lt;/span&gt;&lt;span style=&quot;color: rgb(212, 212, 212); font-size: 9px;&quot;&gt;: &lt;/span&gt;&lt;span style=&quot;color: rgb(78, 201, 176); font-size: 9px;&quot;&gt;number&lt;/span&gt;&lt;/div&gt;&lt;div style=&quot;font-size: 9px;&quot;&gt;&lt;span style=&quot;color: rgb(212, 212, 212); font-size: 9px;&quot;&gt;    &lt;/span&gt;&lt;span style=&quot;color: rgb(156, 220, 254); font-size: 9px;&quot;&gt;high_24h&lt;/span&gt;&lt;span style=&quot;color: rgb(212, 212, 212); font-size: 9px;&quot;&gt;: &lt;/span&gt;&lt;span style=&quot;color: rgb(78, 201, 176); font-size: 9px;&quot;&gt;number&lt;/span&gt;&lt;/div&gt;&lt;div style=&quot;font-size: 9px;&quot;&gt;&lt;span style=&quot;color: rgb(212, 212, 212); font-size: 9px;&quot;&gt;    &lt;/span&gt;&lt;span style=&quot;color: rgb(156, 220, 254); font-size: 9px;&quot;&gt;low_24h&lt;/span&gt;&lt;span style=&quot;color: rgb(212, 212, 212); font-size: 9px;&quot;&gt;: &lt;/span&gt;&lt;span style=&quot;color: rgb(78, 201, 176); font-size: 9px;&quot;&gt;number&lt;/span&gt;&lt;/div&gt;&lt;div style=&quot;font-size: 9px;&quot;&gt;&lt;span style=&quot;color: rgb(212, 212, 212); font-size: 9px;&quot;&gt;    &lt;/span&gt;&lt;span style=&quot;color: rgb(156, 220, 254); font-size: 9px;&quot;&gt;price_change_24h&lt;/span&gt;&lt;span style=&quot;color: rgb(212, 212, 212); font-size: 9px;&quot;&gt;: &lt;/span&gt;&lt;span style=&quot;color: rgb(78, 201, 176); font-size: 9px;&quot;&gt;number&lt;/span&gt;&lt;/div&gt;&lt;div style=&quot;font-size: 9px;&quot;&gt;&lt;span style=&quot;color: rgb(212, 212, 212); font-size: 9px;&quot;&gt;    &lt;/span&gt;&lt;span style=&quot;color: rgb(156, 220, 254); font-size: 9px;&quot;&gt;price_change_percentage_24h&lt;/span&gt;&lt;span style=&quot;color: rgb(212, 212, 212); font-size: 9px;&quot;&gt;: &lt;/span&gt;&lt;span style=&quot;color: rgb(78, 201, 176); font-size: 9px;&quot;&gt;number&lt;/span&gt;&lt;/div&gt;&lt;div style=&quot;font-size: 9px;&quot;&gt;&lt;span style=&quot;color: rgb(212, 212, 212); font-size: 9px;&quot;&gt;    &lt;/span&gt;&lt;span style=&quot;color: rgb(156, 220, 254); font-size: 9px;&quot;&gt;market_cap_change_24h&lt;/span&gt;&lt;span style=&quot;color: rgb(212, 212, 212); font-size: 9px;&quot;&gt;: &lt;/span&gt;&lt;span style=&quot;color: rgb(78, 201, 176); font-size: 9px;&quot;&gt;number&lt;/span&gt;&lt;/div&gt;&lt;div style=&quot;font-size: 9px;&quot;&gt;&lt;span style=&quot;color: rgb(212, 212, 212); font-size: 9px;&quot;&gt;    &lt;/span&gt;&lt;span style=&quot;color: rgb(156, 220, 254); font-size: 9px;&quot;&gt;market_cap_change_percentage_24h&lt;/span&gt;&lt;span style=&quot;color: rgb(212, 212, 212); font-size: 9px;&quot;&gt;: &lt;/span&gt;&lt;span style=&quot;color: rgb(78, 201, 176); font-size: 9px;&quot;&gt;number&lt;/span&gt;&lt;/div&gt;&lt;div style=&quot;font-size: 9px;&quot;&gt;&lt;span style=&quot;color: rgb(212, 212, 212); font-size: 9px;&quot;&gt;    &lt;/span&gt;&lt;span style=&quot;color: rgb(156, 220, 254); font-size: 9px;&quot;&gt;circulating_supply&lt;/span&gt;&lt;span style=&quot;color: rgb(212, 212, 212); font-size: 9px;&quot;&gt;: &lt;/span&gt;&lt;span style=&quot;color: rgb(78, 201, 176); font-size: 9px;&quot;&gt;number&lt;/span&gt;&lt;/div&gt;&lt;div style=&quot;font-size: 9px;&quot;&gt;&lt;span style=&quot;color: rgb(212, 212, 212); font-size: 9px;&quot;&gt;    &lt;/span&gt;&lt;span style=&quot;color: rgb(156, 220, 254); font-size: 9px;&quot;&gt;total_supply&lt;/span&gt;&lt;span style=&quot;color: rgb(212, 212, 212); font-size: 9px;&quot;&gt;: &lt;/span&gt;&lt;span style=&quot;color: rgb(78, 201, 176); font-size: 9px;&quot;&gt;number&lt;/span&gt;&lt;span style=&quot;color: rgb(212, 212, 212); font-size: 9px;&quot;&gt; | &lt;/span&gt;&lt;span style=&quot;color: rgb(78, 201, 176); font-size: 9px;&quot;&gt;null&lt;/span&gt;&lt;/div&gt;&lt;div style=&quot;font-size: 9px;&quot;&gt;&lt;span style=&quot;color: rgb(212, 212, 212); font-size: 9px;&quot;&gt;    &lt;/span&gt;&lt;span style=&quot;color: rgb(156, 220, 254); font-size: 9px;&quot;&gt;max_supply&lt;/span&gt;&lt;span style=&quot;color: rgb(212, 212, 212); font-size: 9px;&quot;&gt;: &lt;/span&gt;&lt;span style=&quot;color: rgb(78, 201, 176); font-size: 9px;&quot;&gt;number&lt;/span&gt;&lt;span style=&quot;color: rgb(212, 212, 212); font-size: 9px;&quot;&gt; | &lt;/span&gt;&lt;span style=&quot;color: rgb(78, 201, 176); font-size: 9px;&quot;&gt;null&lt;/span&gt;&lt;/div&gt;&lt;div style=&quot;font-size: 9px;&quot;&gt;&lt;span style=&quot;color: rgb(212, 212, 212); font-size: 9px;&quot;&gt;    &lt;/span&gt;&lt;span style=&quot;color: rgb(156, 220, 254); font-size: 9px;&quot;&gt;ath&lt;/span&gt;&lt;span style=&quot;color: rgb(212, 212, 212); font-size: 9px;&quot;&gt;: &lt;/span&gt;&lt;span style=&quot;color: rgb(78, 201, 176); font-size: 9px;&quot;&gt;number&lt;/span&gt;&lt;/div&gt;&lt;div style=&quot;font-size: 9px;&quot;&gt;&lt;span style=&quot;color: rgb(212, 212, 212); font-size: 9px;&quot;&gt;    &lt;/span&gt;&lt;span style=&quot;color: rgb(156, 220, 254); font-size: 9px;&quot;&gt;ath_change_percentage&lt;/span&gt;&lt;span style=&quot;color: rgb(212, 212, 212); font-size: 9px;&quot;&gt;: &lt;/span&gt;&lt;span style=&quot;color: rgb(78, 201, 176); font-size: 9px;&quot;&gt;number&lt;/span&gt;&lt;/div&gt;&lt;div style=&quot;font-size: 9px;&quot;&gt;&lt;span style=&quot;color: rgb(212, 212, 212); font-size: 9px;&quot;&gt;    &lt;/span&gt;&lt;span style=&quot;color: rgb(156, 220, 254); font-size: 9px;&quot;&gt;ath_date&lt;/span&gt;&lt;span style=&quot;color: rgb(212, 212, 212); font-size: 9px;&quot;&gt;: &lt;/span&gt;&lt;span style=&quot;color: rgb(78, 201, 176); font-size: 9px;&quot;&gt;string&lt;/span&gt;&lt;/div&gt;&lt;div style=&quot;font-size: 9px;&quot;&gt;&lt;span style=&quot;color: rgb(212, 212, 212); font-size: 9px;&quot;&gt;    &lt;/span&gt;&lt;span style=&quot;color: rgb(156, 220, 254); font-size: 9px;&quot;&gt;atl&lt;/span&gt;&lt;span style=&quot;color: rgb(212, 212, 212); font-size: 9px;&quot;&gt;: &lt;/span&gt;&lt;span style=&quot;color: rgb(78, 201, 176); font-size: 9px;&quot;&gt;number&lt;/span&gt;&lt;/div&gt;&lt;div style=&quot;font-size: 9px;&quot;&gt;&lt;span style=&quot;color: rgb(212, 212, 212); font-size: 9px;&quot;&gt;    &lt;/span&gt;&lt;span style=&quot;color: rgb(156, 220, 254); font-size: 9px;&quot;&gt;atl_change_percentage&lt;/span&gt;&lt;span style=&quot;color: rgb(212, 212, 212); font-size: 9px;&quot;&gt;: &lt;/span&gt;&lt;span style=&quot;color: rgb(78, 201, 176); font-size: 9px;&quot;&gt;number&lt;/span&gt;&lt;/div&gt;&lt;div style=&quot;font-size: 9px;&quot;&gt;&lt;span style=&quot;color: rgb(212, 212, 212); font-size: 9px;&quot;&gt;    &lt;/span&gt;&lt;span style=&quot;color: rgb(156, 220, 254); font-size: 9px;&quot;&gt;atl_date&lt;/span&gt;&lt;span style=&quot;color: rgb(212, 212, 212); font-size: 9px;&quot;&gt;: &lt;/span&gt;&lt;span style=&quot;color: rgb(78, 201, 176); font-size: 9px;&quot;&gt;string&lt;/span&gt;&lt;/div&gt;&lt;div style=&quot;font-size: 9px;&quot;&gt;&lt;span style=&quot;color: rgb(212, 212, 212); font-size: 9px;&quot;&gt;    &lt;/span&gt;&lt;span style=&quot;color: rgb(156, 220, 254); font-size: 9px;&quot;&gt;roi&lt;/span&gt;&lt;span style=&quot;color: rgb(212, 212, 212); font-size: 9px;&quot;&gt;: &lt;/span&gt;&lt;span style=&quot;color: rgb(78, 201, 176); font-size: 9px;&quot;&gt;null&lt;/span&gt;&lt;span style=&quot;color: rgb(212, 212, 212); font-size: 9px;&quot;&gt; | {&lt;/span&gt;&lt;/div&gt;&lt;div style=&quot;font-size: 9px;&quot;&gt;&lt;span style=&quot;color: rgb(212, 212, 212); font-size: 9px;&quot;&gt;      &lt;/span&gt;&lt;span style=&quot;color: rgb(156, 220, 254); font-size: 9px;&quot;&gt;times&lt;/span&gt;&lt;span style=&quot;color: rgb(212, 212, 212); font-size: 9px;&quot;&gt;: &lt;/span&gt;&lt;span style=&quot;color: rgb(78, 201, 176); font-size: 9px;&quot;&gt;number&lt;/span&gt;&lt;/div&gt;&lt;div style=&quot;font-size: 9px;&quot;&gt;&lt;span style=&quot;color: rgb(212, 212, 212); font-size: 9px;&quot;&gt;      &lt;/span&gt;&lt;span style=&quot;color: rgb(156, 220, 254); font-size: 9px;&quot;&gt;currency&lt;/span&gt;&lt;span style=&quot;color: rgb(212, 212, 212); font-size: 9px;&quot;&gt;: &lt;/span&gt;&lt;span style=&quot;color: rgb(78, 201, 176); font-size: 9px;&quot;&gt;string&lt;/span&gt;&lt;/div&gt;&lt;div style=&quot;font-size: 9px;&quot;&gt;&lt;span style=&quot;color: rgb(212, 212, 212); font-size: 9px;&quot;&gt;      &lt;/span&gt;&lt;span style=&quot;color: rgb(156, 220, 254); font-size: 9px;&quot;&gt;percentage&lt;/span&gt;&lt;span style=&quot;color: rgb(212, 212, 212); font-size: 9px;&quot;&gt;: &lt;/span&gt;&lt;span style=&quot;color: rgb(78, 201, 176); font-size: 9px;&quot;&gt;number&lt;/span&gt;&lt;/div&gt;&lt;div style=&quot;font-size: 9px;&quot;&gt;&lt;span style=&quot;color: rgb(212, 212, 212); font-size: 9px;&quot;&gt;    }&lt;/span&gt;&lt;/div&gt;&lt;div style=&quot;font-size: 9px;&quot;&gt;&lt;span style=&quot;color: rgb(212, 212, 212); font-size: 9px;&quot;&gt;    &lt;/span&gt;&lt;span style=&quot;color: rgb(156, 220, 254); font-size: 9px;&quot;&gt;last_updated&lt;/span&gt;&lt;span style=&quot;color: rgb(212, 212, 212); font-size: 9px;&quot;&gt;: &lt;/span&gt;&lt;span style=&quot;color: rgb(78, 201, 176); font-size: 9px;&quot;&gt;string&lt;/span&gt;&lt;/div&gt;&lt;div style=&quot;font-size: 9px;&quot;&gt;&lt;span style=&quot;color: rgb(212, 212, 212); font-size: 9px;&quot;&gt;  }&lt;/span&gt;&lt;/div&gt;&lt;div style=&quot;font-size: 9px;&quot;&gt;&lt;span style=&quot;color: rgb(212, 212, 212); font-size: 9px;&quot;&gt;}&lt;/span&gt;&lt;/div&gt;&lt;/div&gt;" style="text;html=1;fontSize=9;whiteSpace=wrap;spacingTop=-5;" parent="1" vertex="1">
                    <mxGeometry x="550" y="330" width="220" height="610" as="geometry"/>
                </mxCell>
                <mxCell id="19" value="&lt;meta charset=&quot;utf-8&quot; style=&quot;font-size: 9px;&quot;&gt;&lt;div style=&quot;color: rgb(212, 212, 212); background-color: rgb(30, 30, 30); font-family: menlo, monaco, &amp;quot;courier new&amp;quot;, monospace; font-weight: normal; font-size: 9px; line-height: 18px;&quot;&gt;&lt;div style=&quot;font-size: 9px;&quot;&gt;&lt;span style=&quot;color: rgb(197, 134, 192); font-size: 9px;&quot;&gt;export&lt;/span&gt;&lt;span style=&quot;color: rgb(212, 212, 212); font-size: 9px;&quot;&gt; &lt;/span&gt;&lt;span style=&quot;color: rgb(86, 156, 214); font-size: 9px;&quot;&gt;type&lt;/span&gt;&lt;span style=&quot;color: rgb(212, 212, 212); font-size: 9px;&quot;&gt; &lt;/span&gt;&lt;span style=&quot;color: rgb(78, 201, 176); font-size: 9px;&quot;&gt;CoinGeckoMarketCap&lt;/span&gt;&lt;span style=&quot;color: rgb(212, 212, 212); font-size: 9px;&quot;&gt; = {&lt;/span&gt;&lt;/div&gt;&lt;div style=&quot;font-size: 9px;&quot;&gt;&lt;span style=&quot;color: rgb(212, 212, 212); font-size: 9px;&quot;&gt;  &lt;/span&gt;&lt;span style=&quot;color: rgb(156, 220, 254); font-size: 9px;&quot;&gt;id&lt;/span&gt;&lt;span style=&quot;color: rgb(212, 212, 212); font-size: 9px;&quot;&gt;: &lt;/span&gt;&lt;span style=&quot;color: rgb(78, 201, 176); font-size: 9px;&quot;&gt;string&lt;/span&gt;&lt;/div&gt;&lt;div style=&quot;font-size: 9px;&quot;&gt;&lt;span style=&quot;color: rgb(212, 212, 212); font-size: 9px;&quot;&gt;  &lt;/span&gt;&lt;span style=&quot;color: rgb(156, 220, 254); font-size: 9px;&quot;&gt;symbol&lt;/span&gt;&lt;span style=&quot;color: rgb(212, 212, 212); font-size: 9px;&quot;&gt;: &lt;/span&gt;&lt;span style=&quot;color: rgb(78, 201, 176); font-size: 9px;&quot;&gt;string&lt;/span&gt;&lt;/div&gt;&lt;div style=&quot;font-size: 9px;&quot;&gt;&lt;span style=&quot;color: rgb(212, 212, 212); font-size: 9px;&quot;&gt;  &lt;/span&gt;&lt;span style=&quot;color: rgb(156, 220, 254); font-size: 9px;&quot;&gt;name&lt;/span&gt;&lt;span style=&quot;color: rgb(212, 212, 212); font-size: 9px;&quot;&gt;: &lt;/span&gt;&lt;span style=&quot;color: rgb(78, 201, 176); font-size: 9px;&quot;&gt;string&lt;/span&gt;&lt;/div&gt;&lt;div style=&quot;font-size: 9px;&quot;&gt;&lt;span style=&quot;color: rgb(212, 212, 212); font-size: 9px;&quot;&gt;  &lt;/span&gt;&lt;span style=&quot;color: rgb(156, 220, 254); font-size: 9px;&quot;&gt;image&lt;/span&gt;&lt;span style=&quot;color: rgb(212, 212, 212); font-size: 9px;&quot;&gt;: &lt;/span&gt;&lt;span style=&quot;color: rgb(78, 201, 176); font-size: 9px;&quot;&gt;string&lt;/span&gt;&lt;/div&gt;&lt;div style=&quot;font-size: 9px;&quot;&gt;&lt;span style=&quot;color: rgb(212, 212, 212); font-size: 9px;&quot;&gt;  &lt;/span&gt;&lt;span style=&quot;color: rgb(156, 220, 254); font-size: 9px;&quot;&gt;current_price&lt;/span&gt;&lt;span style=&quot;color: rgb(212, 212, 212); font-size: 9px;&quot;&gt;: &lt;/span&gt;&lt;span style=&quot;color: rgb(78, 201, 176); font-size: 9px;&quot;&gt;number&lt;/span&gt;&lt;/div&gt;&lt;div style=&quot;font-size: 9px;&quot;&gt;&lt;span style=&quot;color: rgb(212, 212, 212); font-size: 9px;&quot;&gt;  &lt;/span&gt;&lt;span style=&quot;color: rgb(156, 220, 254); font-size: 9px;&quot;&gt;market_cap&lt;/span&gt;&lt;span style=&quot;color: rgb(212, 212, 212); font-size: 9px;&quot;&gt;: &lt;/span&gt;&lt;span style=&quot;color: rgb(78, 201, 176); font-size: 9px;&quot;&gt;number&lt;/span&gt;&lt;/div&gt;&lt;div style=&quot;font-size: 9px;&quot;&gt;&lt;span style=&quot;color: rgb(212, 212, 212); font-size: 9px;&quot;&gt;  &lt;/span&gt;&lt;span style=&quot;color: rgb(156, 220, 254); font-size: 9px;&quot;&gt;market_cap_rank&lt;/span&gt;&lt;span style=&quot;color: rgb(212, 212, 212); font-size: 9px;&quot;&gt;: &lt;/span&gt;&lt;span style=&quot;color: rgb(78, 201, 176); font-size: 9px;&quot;&gt;number&lt;/span&gt;&lt;/div&gt;&lt;div style=&quot;font-size: 9px;&quot;&gt;&lt;span style=&quot;color: rgb(212, 212, 212); font-size: 9px;&quot;&gt;  &lt;/span&gt;&lt;span style=&quot;color: rgb(156, 220, 254); font-size: 9px;&quot;&gt;fully_diluted_valuation&lt;/span&gt;&lt;span style=&quot;color: rgb(212, 212, 212); font-size: 9px;&quot;&gt;: &lt;/span&gt;&lt;span style=&quot;color: rgb(78, 201, 176); font-size: 9px;&quot;&gt;number&lt;/span&gt;&lt;span style=&quot;color: rgb(212, 212, 212); font-size: 9px;&quot;&gt; | &lt;/span&gt;&lt;span style=&quot;color: rgb(78, 201, 176); font-size: 9px;&quot;&gt;null&lt;/span&gt;&lt;/div&gt;&lt;div style=&quot;font-size: 9px;&quot;&gt;&lt;span style=&quot;color: rgb(212, 212, 212); font-size: 9px;&quot;&gt;  &lt;/span&gt;&lt;span style=&quot;color: rgb(156, 220, 254); font-size: 9px;&quot;&gt;total_volume&lt;/span&gt;&lt;span style=&quot;color: rgb(212, 212, 212); font-size: 9px;&quot;&gt;: &lt;/span&gt;&lt;span style=&quot;color: rgb(78, 201, 176); font-size: 9px;&quot;&gt;number&lt;/span&gt;&lt;/div&gt;&lt;div style=&quot;font-size: 9px;&quot;&gt;&lt;span style=&quot;color: rgb(212, 212, 212); font-size: 9px;&quot;&gt;  &lt;/span&gt;&lt;span style=&quot;color: rgb(156, 220, 254); font-size: 9px;&quot;&gt;high_24h&lt;/span&gt;&lt;span style=&quot;color: rgb(212, 212, 212); font-size: 9px;&quot;&gt;: &lt;/span&gt;&lt;span style=&quot;color: rgb(78, 201, 176); font-size: 9px;&quot;&gt;number&lt;/span&gt;&lt;/div&gt;&lt;div style=&quot;font-size: 9px;&quot;&gt;&lt;span style=&quot;color: rgb(212, 212, 212); font-size: 9px;&quot;&gt;  &lt;/span&gt;&lt;span style=&quot;color: rgb(156, 220, 254); font-size: 9px;&quot;&gt;low_24h&lt;/span&gt;&lt;span style=&quot;color: rgb(212, 212, 212); font-size: 9px;&quot;&gt;: &lt;/span&gt;&lt;span style=&quot;color: rgb(78, 201, 176); font-size: 9px;&quot;&gt;number&lt;/span&gt;&lt;/div&gt;&lt;div style=&quot;font-size: 9px;&quot;&gt;&lt;span style=&quot;color: rgb(212, 212, 212); font-size: 9px;&quot;&gt;  &lt;/span&gt;&lt;span style=&quot;color: rgb(156, 220, 254); font-size: 9px;&quot;&gt;price_change_24h&lt;/span&gt;&lt;span style=&quot;color: rgb(212, 212, 212); font-size: 9px;&quot;&gt;: &lt;/span&gt;&lt;span style=&quot;color: rgb(78, 201, 176); font-size: 9px;&quot;&gt;number&lt;/span&gt;&lt;/div&gt;&lt;div style=&quot;font-size: 9px;&quot;&gt;&lt;span style=&quot;color: rgb(212, 212, 212); font-size: 9px;&quot;&gt;  &lt;/span&gt;&lt;span style=&quot;color: rgb(156, 220, 254); font-size: 9px;&quot;&gt;price_change_percentage_24h&lt;/span&gt;&lt;span style=&quot;color: rgb(212, 212, 212); font-size: 9px;&quot;&gt;: &lt;/span&gt;&lt;span style=&quot;color: rgb(78, 201, 176); font-size: 9px;&quot;&gt;number&lt;/span&gt;&lt;/div&gt;&lt;div style=&quot;font-size: 9px;&quot;&gt;&lt;span style=&quot;color: rgb(212, 212, 212); font-size: 9px;&quot;&gt;  &lt;/span&gt;&lt;span style=&quot;color: rgb(156, 220, 254); font-size: 9px;&quot;&gt;market_cap_change_24h&lt;/span&gt;&lt;span style=&quot;color: rgb(212, 212, 212); font-size: 9px;&quot;&gt;: &lt;/span&gt;&lt;span style=&quot;color: rgb(78, 201, 176); font-size: 9px;&quot;&gt;number&lt;/span&gt;&lt;/div&gt;&lt;div style=&quot;font-size: 9px;&quot;&gt;&lt;span style=&quot;color: rgb(212, 212, 212); font-size: 9px;&quot;&gt;  &lt;/span&gt;&lt;span style=&quot;color: rgb(156, 220, 254); font-size: 9px;&quot;&gt;market_cap_change_percentage_24h&lt;/span&gt;&lt;span style=&quot;color: rgb(212, 212, 212); font-size: 9px;&quot;&gt;: &lt;/span&gt;&lt;span style=&quot;color: rgb(78, 201, 176); font-size: 9px;&quot;&gt;number&lt;/span&gt;&lt;/div&gt;&lt;div style=&quot;font-size: 9px;&quot;&gt;&lt;span style=&quot;color: rgb(212, 212, 212); font-size: 9px;&quot;&gt;  &lt;/span&gt;&lt;span style=&quot;color: rgb(156, 220, 254); font-size: 9px;&quot;&gt;circulating_supply&lt;/span&gt;&lt;span style=&quot;color: rgb(212, 212, 212); font-size: 9px;&quot;&gt;: &lt;/span&gt;&lt;span style=&quot;color: rgb(78, 201, 176); font-size: 9px;&quot;&gt;number&lt;/span&gt;&lt;/div&gt;&lt;div style=&quot;font-size: 9px;&quot;&gt;&lt;span style=&quot;color: rgb(212, 212, 212); font-size: 9px;&quot;&gt;  &lt;/span&gt;&lt;span style=&quot;color: rgb(156, 220, 254); font-size: 9px;&quot;&gt;total_supply&lt;/span&gt;&lt;span style=&quot;color: rgb(212, 212, 212); font-size: 9px;&quot;&gt;: &lt;/span&gt;&lt;span style=&quot;color: rgb(78, 201, 176); font-size: 9px;&quot;&gt;number&lt;/span&gt;&lt;span style=&quot;color: rgb(212, 212, 212); font-size: 9px;&quot;&gt; | &lt;/span&gt;&lt;span style=&quot;color: rgb(78, 201, 176); font-size: 9px;&quot;&gt;null&lt;/span&gt;&lt;/div&gt;&lt;div style=&quot;font-size: 9px;&quot;&gt;&lt;span style=&quot;color: rgb(212, 212, 212); font-size: 9px;&quot;&gt;  &lt;/span&gt;&lt;span style=&quot;color: rgb(156, 220, 254); font-size: 9px;&quot;&gt;max_supply&lt;/span&gt;&lt;span style=&quot;color: rgb(212, 212, 212); font-size: 9px;&quot;&gt;: &lt;/span&gt;&lt;span style=&quot;color: rgb(78, 201, 176); font-size: 9px;&quot;&gt;number&lt;/span&gt;&lt;span style=&quot;color: rgb(212, 212, 212); font-size: 9px;&quot;&gt; | &lt;/span&gt;&lt;span style=&quot;color: rgb(78, 201, 176); font-size: 9px;&quot;&gt;null&lt;/span&gt;&lt;/div&gt;&lt;div style=&quot;font-size: 9px;&quot;&gt;&lt;span style=&quot;color: rgb(212, 212, 212); font-size: 9px;&quot;&gt;  &lt;/span&gt;&lt;span style=&quot;color: rgb(156, 220, 254); font-size: 9px;&quot;&gt;ath&lt;/span&gt;&lt;span style=&quot;color: rgb(212, 212, 212); font-size: 9px;&quot;&gt;: &lt;/span&gt;&lt;span style=&quot;color: rgb(78, 201, 176); font-size: 9px;&quot;&gt;number&lt;/span&gt;&lt;/div&gt;&lt;div style=&quot;font-size: 9px;&quot;&gt;&lt;span style=&quot;color: rgb(212, 212, 212); font-size: 9px;&quot;&gt;  &lt;/span&gt;&lt;span style=&quot;color: rgb(156, 220, 254); font-size: 9px;&quot;&gt;ath_change_percentage&lt;/span&gt;&lt;span style=&quot;color: rgb(212, 212, 212); font-size: 9px;&quot;&gt;: &lt;/span&gt;&lt;span style=&quot;color: rgb(78, 201, 176); font-size: 9px;&quot;&gt;number&lt;/span&gt;&lt;/div&gt;&lt;div style=&quot;font-size: 9px;&quot;&gt;&lt;span style=&quot;color: rgb(212, 212, 212); font-size: 9px;&quot;&gt;  &lt;/span&gt;&lt;span style=&quot;color: rgb(156, 220, 254); font-size: 9px;&quot;&gt;ath_date&lt;/span&gt;&lt;span style=&quot;color: rgb(212, 212, 212); font-size: 9px;&quot;&gt;: &lt;/span&gt;&lt;span style=&quot;color: rgb(78, 201, 176); font-size: 9px;&quot;&gt;string&lt;/span&gt;&lt;/div&gt;&lt;div style=&quot;font-size: 9px;&quot;&gt;&lt;span style=&quot;color: rgb(212, 212, 212); font-size: 9px;&quot;&gt;  &lt;/span&gt;&lt;span style=&quot;color: rgb(156, 220, 254); font-size: 9px;&quot;&gt;atl&lt;/span&gt;&lt;span style=&quot;color: rgb(212, 212, 212); font-size: 9px;&quot;&gt;: &lt;/span&gt;&lt;span style=&quot;color: rgb(78, 201, 176); font-size: 9px;&quot;&gt;number&lt;/span&gt;&lt;/div&gt;&lt;div style=&quot;font-size: 9px;&quot;&gt;&lt;span style=&quot;color: rgb(212, 212, 212); font-size: 9px;&quot;&gt;  &lt;/span&gt;&lt;span style=&quot;color: rgb(156, 220, 254); font-size: 9px;&quot;&gt;atl_change_percentage&lt;/span&gt;&lt;span style=&quot;color: rgb(212, 212, 212); font-size: 9px;&quot;&gt;: &lt;/span&gt;&lt;span style=&quot;color: rgb(78, 201, 176); font-size: 9px;&quot;&gt;number&lt;/span&gt;&lt;/div&gt;&lt;div style=&quot;font-size: 9px;&quot;&gt;&lt;span style=&quot;color: rgb(212, 212, 212); font-size: 9px;&quot;&gt;  &lt;/span&gt;&lt;span style=&quot;color: rgb(156, 220, 254); font-size: 9px;&quot;&gt;atl_date&lt;/span&gt;&lt;span style=&quot;color: rgb(212, 212, 212); font-size: 9px;&quot;&gt;: &lt;/span&gt;&lt;span style=&quot;color: rgb(78, 201, 176); font-size: 9px;&quot;&gt;string&lt;/span&gt;&lt;/div&gt;&lt;div style=&quot;font-size: 9px;&quot;&gt;&lt;span style=&quot;color: rgb(212, 212, 212); font-size: 9px;&quot;&gt;  &lt;/span&gt;&lt;span style=&quot;color: rgb(156, 220, 254); font-size: 9px;&quot;&gt;roi&lt;/span&gt;&lt;span style=&quot;color: rgb(212, 212, 212); font-size: 9px;&quot;&gt;: &lt;/span&gt;&lt;span style=&quot;color: rgb(78, 201, 176); font-size: 9px;&quot;&gt;null&lt;/span&gt;&lt;span style=&quot;color: rgb(212, 212, 212); font-size: 9px;&quot;&gt; | {&lt;/span&gt;&lt;/div&gt;&lt;div style=&quot;font-size: 9px;&quot;&gt;&lt;span style=&quot;color: rgb(212, 212, 212); font-size: 9px;&quot;&gt;    &lt;/span&gt;&lt;span style=&quot;color: rgb(156, 220, 254); font-size: 9px;&quot;&gt;times&lt;/span&gt;&lt;span style=&quot;color: rgb(212, 212, 212); font-size: 9px;&quot;&gt;: &lt;/span&gt;&lt;span style=&quot;color: rgb(78, 201, 176); font-size: 9px;&quot;&gt;number&lt;/span&gt;&lt;/div&gt;&lt;div style=&quot;font-size: 9px;&quot;&gt;&lt;span style=&quot;color: rgb(212, 212, 212); font-size: 9px;&quot;&gt;    &lt;/span&gt;&lt;span style=&quot;color: rgb(156, 220, 254); font-size: 9px;&quot;&gt;currency&lt;/span&gt;&lt;span style=&quot;color: rgb(212, 212, 212); font-size: 9px;&quot;&gt;: &lt;/span&gt;&lt;span style=&quot;color: rgb(78, 201, 176); font-size: 9px;&quot;&gt;string&lt;/span&gt;&lt;/div&gt;&lt;div style=&quot;font-size: 9px;&quot;&gt;&lt;span style=&quot;color: rgb(212, 212, 212); font-size: 9px;&quot;&gt;    &lt;/span&gt;&lt;span style=&quot;color: rgb(156, 220, 254); font-size: 9px;&quot;&gt;percentage&lt;/span&gt;&lt;span style=&quot;color: rgb(212, 212, 212); font-size: 9px;&quot;&gt;: &lt;/span&gt;&lt;span style=&quot;color: rgb(78, 201, 176); font-size: 9px;&quot;&gt;number&lt;/span&gt;&lt;/div&gt;&lt;div style=&quot;font-size: 9px;&quot;&gt;&lt;span style=&quot;color: rgb(212, 212, 212); font-size: 9px;&quot;&gt;  }&lt;/span&gt;&lt;/div&gt;&lt;div style=&quot;font-size: 9px;&quot;&gt;&lt;span style=&quot;color: rgb(212, 212, 212); font-size: 9px;&quot;&gt;  &lt;/span&gt;&lt;span style=&quot;color: rgb(156, 220, 254); font-size: 9px;&quot;&gt;last_updated&lt;/span&gt;&lt;span style=&quot;color: rgb(212, 212, 212); font-size: 9px;&quot;&gt;: &lt;/span&gt;&lt;span style=&quot;color: rgb(78, 201, 176); font-size: 9px;&quot;&gt;string&lt;/span&gt;&lt;/div&gt;&lt;div style=&quot;font-size: 9px;&quot;&gt;&lt;span style=&quot;color: rgb(212, 212, 212); font-size: 9px;&quot;&gt;}&lt;/span&gt;&lt;/div&gt;&lt;/div&gt;" style="text;whiteSpace=wrap;html=1;fontSize=9;spacingTop=-5;" parent="1" vertex="1">
                    <mxGeometry x="248.25" y="-100" width="221.75" height="580" as="geometry"/>
                </mxCell>
                <mxCell id="26" value="" style="endArrow=classic;startArrow=classic;html=1;" edge="1" parent="1" source="28" target="23">
                    <mxGeometry width="50" height="50" relative="1" as="geometry">
                        <mxPoint x="165.7" y="980" as="sourcePoint"/>
                        <mxPoint x="340" y="800" as="targetPoint"/>
                    </mxGeometry>
                </mxCell>
                <mxCell id="27" value="" style="group" vertex="1" connectable="0" parent="1">
                    <mxGeometry x="295.7" y="870" width="54" height="110" as="geometry"/>
                </mxCell>
                <mxCell id="28" value="" style="outlineConnect=0;fontColor=#232F3E;gradientColor=none;fillColor=#6CAE3E;strokeColor=none;dashed=0;verticalLabelPosition=bottom;verticalAlign=top;align=center;html=1;fontSize=12;fontStyle=0;aspect=fixed;pointerEvents=1;shape=mxgraph.aws4.iot_analytics_data_store;" vertex="1" parent="27">
                    <mxGeometry width="54" height="78" as="geometry"/>
                </mxCell>
                <mxCell id="29" value="Redux Store" style="text;html=1;strokeColor=none;fillColor=none;align=center;verticalAlign=middle;whiteSpace=wrap;rounded=0;" vertex="1" parent="27">
                    <mxGeometry x="7" y="90" width="40" height="20" as="geometry"/>
                </mxCell>
                <mxCell id="31" value="" style="group" vertex="1" connectable="0" parent="1">
                    <mxGeometry x="530" y="170" width="190" height="120" as="geometry"/>
                </mxCell>
                <mxCell id="2" value="" style="ellipse;shape=cloud;whiteSpace=wrap;html=1;" parent="31" vertex="1">
                    <mxGeometry width="190" height="120" as="geometry"/>
                </mxCell>
                <mxCell id="5" value="CoinGecko" style="text;html=1;strokeColor=none;fillColor=none;align=center;verticalAlign=middle;whiteSpace=wrap;rounded=0;" parent="31" vertex="1">
                    <mxGeometry x="75" y="50" width="40" height="20" as="geometry"/>
                </mxCell>
                <mxCell id="33" value="" style="group" vertex="1" connectable="0" parent="1">
                    <mxGeometry x="264.33" y="690" width="116.75" height="90" as="geometry"/>
                </mxCell>
                <mxCell id="23" value="" style="verticalLabelPosition=bottom;html=1;verticalAlign=top;align=center;strokeColor=none;fillColor=#00BEF2;shape=mxgraph.azure.laptop;pointerEvents=1;fontSize=9;" parent="33" vertex="1">
                    <mxGeometry width="116.75" height="90" as="geometry"/>
                </mxCell>
                <mxCell id="24" value="Web" style="text;html=1;strokeColor=none;fillColor=none;align=center;verticalAlign=middle;whiteSpace=wrap;rounded=0;fontSize=12;" parent="33" vertex="1">
                    <mxGeometry x="38.370000000000005" y="30" width="40" height="20" as="geometry"/>
                </mxCell>
                <mxCell id="34" value="" style="group" vertex="1" connectable="0" parent="1">
                    <mxGeometry x="284.45" y="540" width="76.5" height="93" as="geometry"/>
                </mxCell>
                <mxCell id="8" value="" style="outlineConnect=0;dashed=0;verticalLabelPosition=bottom;verticalAlign=top;align=center;html=1;shape=mxgraph.aws3.cloudsearch;fillColor=#F58534;gradientColor=none;" parent="34" vertex="1">
                    <mxGeometry width="76.5" height="93" as="geometry"/>
                </mxCell>
                <mxCell id="9" value="Market-Service" style="text;html=1;strokeColor=none;fillColor=none;align=center;verticalAlign=middle;whiteSpace=wrap;rounded=0;" parent="34" vertex="1">
                    <mxGeometry x="18.25" y="30" width="40" height="20" as="geometry"/>
                </mxCell>
                <mxCell id="35" value="" style="endArrow=classic;html=1;fontSize=9;" edge="1" parent="1" source="23" target="8">
                    <mxGeometry width="50" height="50" relative="1" as="geometry">
                        <mxPoint x="460" y="750" as="sourcePoint"/>
                        <mxPoint x="510" y="700" as="targetPoint"/>
                    </mxGeometry>
                </mxCell>
                <mxCell id="36" value="Get Market Data" style="text;html=1;strokeColor=none;fillColor=none;align=center;verticalAlign=middle;whiteSpace=wrap;rounded=0;fontSize=9;" vertex="1" parent="1">
                    <mxGeometry x="240" y="650" width="75.67" height="20" as="geometry"/>
                </mxCell>
                <mxCell id="37" value="" style="outlineConnect=0;dashed=0;verticalLabelPosition=bottom;verticalAlign=top;align=center;html=1;shape=mxgraph.aws3.parameter_store;fillColor=#759C3E;gradientColor=none;fontSize=9;" vertex="1" parent="1">
                    <mxGeometry x="120" y="510" width="75" height="102" as="geometry"/>
                </mxCell>
                <mxCell id="38" value="" style="endArrow=classic;html=1;fontSize=9;strokeColor=#f0f0f0;" edge="1" parent="1" source="8" target="37">
                    <mxGeometry width="50" height="50" relative="1" as="geometry">
                        <mxPoint x="550" y="660" as="sourcePoint"/>
                        <mxPoint x="600" y="610" as="targetPoint"/>
                    </mxGeometry>
                </mxCell>
            </root>
        </mxGraphModel>
    </diagram>
</mxfile>